<?xml version="1.0" encoding="UTF-8"?>
<svg id="Ebene_1" data-name="Ebene 1" xmlns="http://www.w3.org/2000/svg" version="1.1" viewBox="0 0 841.89 595.28">
  <defs>
    <style>
      .cls-1 {
        fill: #b5dbc7;
      }

      .cls-1, .cls-2, .cls-3 {
        stroke-width: 0px;
      }

      .cls-2 {
        fill: #ed694b;
      }

      .cls-3 {
        fill: #657378;
      }
    </style>
  </defs>
  <polygon class="cls-2" points="23.85 242.02 23.85 242.22 23.99 242.22 23.85 242.02"/>
  <polygon class="cls-2" points="150.25 294.12 150.25 294.47 150.5 294.47 150.25 294.12"/>
  <path class="cls-3" d="M101.66,325.14c-5.47-30.71,12.9-55.42,41.22-60.46,26.66-4.75,54.36,9.1,57.59,50.64l-70.06,12.48c4.82,11.09,15.44,16.41,28.32,14.12,10.3-1.83,18.34-7.82,23.91-18.11l21.54,12.29c-8.3,16.27-22.3,27.12-41.61,30.55-31.08,5.53-55.59-11.73-60.89-41.52ZM170.04,300.06c-3.98-9.54-12.31-13.74-23.16-11.81-11.03,1.96-18.23,9.51-19.68,19.44l42.85-7.63Z"/>
  <path class="cls-3" d="M85.69,266.56h12.7v26.52h-9.9c-5.98,0-8.59,2.62-8.59,8.59v63.88h-29.51v-63.13c0-24.84,13.26-35.86,35.3-35.86Z"/>
  <path class="cls-3" d="M347.94,325.14c-5.47-30.71,12.9-55.42,41.22-60.46,26.66-4.75,54.36,9.1,57.59,50.64l-70.06,12.48c4.82,11.09,15.44,16.41,28.32,14.12,10.3-1.83,18.34-7.82,23.91-18.11l21.54,12.29c-8.3,16.27-22.3,27.12-41.61,30.55-31.08,5.53-55.59-11.73-60.89-41.52ZM416.33,300.06c-3.98-9.54-12.31-13.74-23.16-11.81s-18.23,9.51-19.68,19.44l42.85-7.63Z"/>
  <path class="cls-3" d="M569.74,325.14c-5.47-30.71,12.9-55.42,41.22-60.46,26.66-4.75,54.36,9.1,57.59,50.64l-70.06,12.48c4.82,11.09,15.44,16.41,28.32,14.12,10.3-1.83,18.34-7.82,23.91-18.11l21.54,12.29c-8.3,16.27-22.3,27.12-41.61,30.55-31.08,5.53-55.59-11.73-60.89-41.52ZM638.12,300.06c-3.98-9.54-12.31-13.74-23.16-11.81-11.03,1.96-18.23,9.51-19.68,19.44l42.85-7.63Z"/>
  <path class="cls-3" d="M210.46,365.56v-25.03c8.22,1.12,14.19,1.68,18.49,1.68,7.66,0,10.83-1.87,10.83-5.79,0-3.18-2.24-5.98-8.59-10.65l-5.79-4.3c-11.39-8.41-16.06-16.25-16.06-27.27,0-18.3,13.26-28.95,36.42-28.95,4.86,0,10.09.37,15.88,1.31v22.97c-5.42-.75-9.71-.93-12.14-.93-7.85,0-11.58,1.87-11.58,5.04,0,2.24,1.87,4.3,8.03,8.59l5.23,3.74c13.45,9.53,19.05,18.49,19.05,30.26,0,19.43-14.57,30.82-39.6,30.82-5.6,0-12.89-.56-20.17-1.49Z"/>
  <path class="cls-3" d="M281.43,291.22h54.17v27.64h-54.17v-27.64Z"/>
  <path class="cls-3" d="M457.92,332.08v-130.95h29.51v46.57c0,8.22-.18,17.18-.56,25.4,6.72-5.6,16.25-8.4,25.96-8.4,26.71,0,49.31,20.92,49.31,51.36s-22.29,51.33-49.31,51.37c-17.03.02-25.21-2.22-35.49-8.83-11.5-7.39-19.42-20.78-19.42-26.52M508.91,340.53c13.64,0,23.72-9.53,23.72-24.47s-10.09-24.47-23.72-24.47-23.35,9.52-23.35,24.47,9.9,24.47,23.35,24.47Z"/>
  <path class="cls-3" d="M714.17,266.56h12.7v26.52h-9.9c-5.98,0-8.59,2.62-8.59,8.59v63.88h-29.51v-63.13c0-24.84,13.26-35.86,35.3-35.86Z"/>
  <path class="cls-3" d="M773,266.56v-18.97c-1.11.51-2.35.8-3.66.8-4.88,0-8.83-3.95-8.83-8.83,0-1.54.4-2.99,1.09-4.25l-18.12,5.85v25.4h-11.77v26.52h11.77l-.19,72.47h29.51l.19-72.47h11.95v-26.52h-11.95Z"/>
  <g>
    <path class="cls-1" d="M569.84,411.87h-16.68l-2.58,6.67h-5.73l13.95-35.04h5.54l13.95,35.04h-5.92l-2.54-6.67ZM568.1,407.36l-6.58-17.19-6.62,17.19h13.2Z"/>
    <path class="cls-1" d="M591.68,416.42c-1.03,1.22-2.91,2.54-5.54,2.54-3.43,0-6.01-2.35-6.01-6.2v-11.04h4.93v9.49c0,2.44,1.36,3.38,3.15,3.38,1.5,0,3.19-1.13,3.19-3.05v-9.82h4.93v16.82h-4.65v-2.11Z"/>
    <path class="cls-1" d="M605.97,405.86v12.68h-4.89v-12.68h-1.97v-4.13h1.97v-11.84c0-5.87,4.04-8.03,7.7-8.03v4.32c-1.5,0-2.82,1.17-2.82,3.9v11.65h1.97v4.13h-1.97Z"/>
    <path class="cls-1" d="M616.82,405.86v12.68h-4.89v-12.68h-1.97v-4.13h1.97v-9.35l4.89-2.3v11.65h1.97v4.13h-1.97Z"/>
    <path class="cls-1" d="M626.5,418.54h-4.93v-16.82h4.7v3.66c.56-1.32,2.35-3.76,4.84-3.76h.56v5.64c-.19-.09-.61-.14-.94-.14-2.58,0-4.23,1.69-4.23,2.96v8.46Z"/>
    <path class="cls-1" d="M639.93,398.57h-5.12v-4.7h5.12v4.7ZM639.84,418.54h-4.93v-16.82h4.93v16.82Z"/>
    <path class="cls-1" d="M649.71,405.86v12.68h-4.89v-12.68h-1.97v-4.13h1.97v-9.35l4.89-2.3v11.65h1.97v4.13h-1.97Z"/>
    <path class="cls-1" d="M660.42,405.86v12.68h-4.89v-12.68h-1.97v-4.13h1.97v-9.35l4.89-2.3v11.65h1.97v4.13h-1.97Z"/>
    <path class="cls-1" d="M676.2,402.24l-1.5,3.66c-1.22-.56-2.35-.8-2.91-.8-1.03,0-1.69.42-1.69,1.03s.7,1.08,2.3,2.11c3.57,2.44,4.56,3.66,4.56,5.73,0,2.82-2.4,5.07-6.62,5.12-2.25,0-4.37-.56-5.97-1.46l1.41-3.76c1.64.8,2.63,1.22,3.71,1.22,1.5-.05,2.16-.61,2.16-1.22,0-.47-.42-.99-2.77-2.54-3.34-2.16-3.99-3.43-3.99-5.36,0-2.35,1.78-4.89,6.34-4.84,2.02,0,3.66.56,4.98,1.08Z"/>
    <path class="cls-1" d="M694.15,416.1c-1.5,1.83-3.76,3.01-6.58,3.01-4.65,0-8.22-3.85-8.22-8.93s3.57-9.02,8.22-9.02c2.58,0,4.79,1.13,6.3,2.87v-22.12h4.93v36.64h-4.65v-2.44ZM689.17,405.43c-2.68,0-4.65,1.97-4.65,4.7s1.97,4.7,4.65,4.7,4.74-2.02,4.74-4.65-2.07-4.74-4.74-4.74Z"/>
    <path class="cls-1" d="M711.91,419.34c-6.43,0-10.24-3.85-10.24-9.21s3.9-9.21,9.54-9.21c5.31,0,9.35,3.9,9.35,9.21v1.41h-13.58c.42,2.54,2.16,3.85,5.03,3.85,2.3,0,4.23-.85,5.78-2.02l2.49,3.05c-1.97,1.64-4.93,2.91-8.36,2.91ZM707.11,408.25h8.08c-.52-2.07-1.88-3.29-4.04-3.29s-3.52,1.22-4.04,3.29Z"/>
    <path class="cls-1" d="M734.32,402.24l-1.5,3.66c-1.22-.56-2.35-.8-2.91-.8-1.03,0-1.69.42-1.69,1.03s.7,1.08,2.3,2.11c3.57,2.44,4.56,3.66,4.56,5.73,0,2.82-2.4,5.07-6.62,5.12-2.25,0-4.37-.56-5.97-1.46l1.41-3.76c1.64.8,2.63,1.22,3.71,1.22,1.5-.05,2.16-.61,2.16-1.22,0-.47-.42-.99-2.77-2.54-3.34-2.16-3.99-3.43-3.99-5.36,0-2.35,1.78-4.89,6.34-4.84,2.02,0,3.66.56,4.98,1.08Z"/>
    <path class="cls-1" d="M743.43,398.57h-5.12v-4.7h5.12v4.7ZM743.34,418.54h-4.93v-16.82h4.93v16.82Z"/>
    <path class="cls-1" d="M756.02,427.93c-1.83,0-3.71-.19-5.73-.56v-4.42c2.21.47,3.9.66,5.59.66,2.91,0,4.93-.99,4.93-4.65v-2.4c-1.46,1.55-3.48,2.54-5.78,2.54-4.46,0-8.64-3.43-8.64-8.93s4.13-9.02,8.64-9.02c2.35,0,4.42,1.03,5.92,2.63v-2.07h4.79v17.1c0,6.43-3.19,9.11-9.72,9.11ZM761.05,410.13c0-2.68-2.21-4.7-4.7-4.7-2.77,0-4.79,2.02-4.79,4.7s2.02,4.7,4.79,4.7c2.49,0,4.7-2.07,4.7-4.7Z"/>
    <path class="cls-1" d="M774.34,418.54h-4.93v-16.82h4.65v2.11c1.03-1.22,2.91-2.54,5.54-2.54,3.43,0,6.01,2.35,6.01,6.2v11.04h-4.93v-9.49c0-2.44-1.36-3.38-3.15-3.38-1.5,0-3.19,1.13-3.19,3.05v9.82Z"/>
  </g>
  <path class="cls-1" d="M770.42,240.36c.94-.46,1.65-1.3,1.65-2.51,0-2.42-1.78-3.08-3.56-3.08h-2.6v9.08h2.17v-3.03h.13l2.15,3.03h2.34v-.34l-2.28-3.15ZM768.57,239.11h-.5v-2.42h.5c.8,0,1.36.39,1.36,1.19s-.51,1.23-1.36,1.23Z"/>
  <path class="cls-1" d="M498.61,419.35c1.63-14.22,4.34-28.21,8.03-41.89-3.6-.2-6.84-.54-9.81-1.05-3.65,13.75-6.34,27.79-7.98,42.06-.38,4.93-.75,10.15-.92,15.44h9.81c.17-4.99.52-9.91.87-14.57Z"/>
  <path class="cls-1" d="M641.7,192.04c-35.27,19.49-66.36,46.06-91.45,77.82,2.55,1.94,4.93,4.1,7.13,6.47,24.41-31.13,54.75-57.16,89.21-76.2,45.37-25.37,96.44-39.35,148.6-40.09v-9.41c-53.88.77-106.63,15.21-153.49,41.41Z"/>
</svg>